<svg width="54" height="55" viewBox="0 0 54 55" fill="none" xmlns="http://www.w3.org/2000/svg">
<g filter="url(#filter0_d)">
<path d="M27.0516 46.4498C39.7692 46.4498 50.0006 36.2185 50.0006 23.5008C50.0006 10.7831 39.7692 0.551758 27.0516 0.551758C14.3339 0.551758 4.10254 10.7831 4.10254 23.5008C4.10254 36.2185 14.3339 46.4498 27.0516 46.4498Z" fill="#2775CA"/>
<path d="M33.3629 27.1347C33.3629 23.788 31.3549 22.6405 27.3388 22.1625C24.4702 21.78 23.8965 21.0151 23.8965 19.6762C23.8965 18.3374 24.8527 17.477 26.7651 17.477C28.4863 17.477 29.4426 18.0507 29.9206 19.4851C30.0163 19.7719 30.3031 19.9631 30.59 19.9631H32.1198C32.5023 19.9631 32.7892 19.6762 32.7892 19.2939V19.1982C32.4067 17.0944 30.6855 15.469 28.4863 15.2778V12.9829C28.4863 12.6003 28.1994 12.3135 27.7214 12.2178H26.2871C25.9045 12.2178 25.6176 12.5046 25.5219 12.9829V15.1821C22.6533 15.5647 20.8367 17.477 20.8367 19.8676C20.8367 23.0231 22.749 24.266 26.7651 24.7443C29.4426 25.2223 30.3031 25.796 30.3031 27.3261C30.3031 28.8561 28.9643 29.9078 27.1477 29.9078C24.6614 29.9078 23.8008 28.8558 23.5139 27.4215C23.4184 27.0392 23.1316 26.8478 22.8447 26.8478H21.219C20.8367 26.8478 20.5498 27.1347 20.5498 27.5172V27.6129C20.9321 30.0033 22.4621 31.7245 25.6176 32.2027V34.4976C25.6176 34.88 25.9045 35.1668 26.3825 35.2625H27.8168C28.1994 35.2625 28.4863 34.9757 28.582 34.4976V32.2027C31.4506 31.7245 33.3629 29.7164 33.3629 27.1347Z" fill="white"/>
<path d="M22.1787 37.1743C14.7202 34.4971 10.8953 26.1781 13.6685 18.8151C15.1028 14.799 18.2583 11.7392 22.1787 10.3049C22.5612 10.1137 22.7524 9.82688 22.7524 9.34863V8.01001C22.7524 7.62745 22.5612 7.34059 22.1787 7.24512C22.083 7.24512 21.8918 7.24512 21.7961 7.34058C12.7122 10.2092 7.73982 19.8671 10.6085 28.951C12.3296 34.3057 16.4414 38.4175 21.7961 40.1387C22.1787 40.3298 22.5612 40.1387 22.6567 39.7561C22.7524 39.6606 22.7524 39.5649 22.7524 39.3738V38.0349C22.7524 37.7481 22.4655 37.3657 22.1787 37.1743ZM32.3146 7.34058C31.932 7.14942 31.5495 7.34058 31.454 7.72315C31.3583 7.81884 31.3583 7.91431 31.3583 8.10571V9.44432C31.3583 9.82688 31.6452 10.2092 31.932 10.4006C39.3905 13.0778 43.2154 21.3969 40.4422 28.7598C39.0079 32.7759 35.8524 35.8357 31.932 37.27C31.5495 37.4612 31.3583 37.7481 31.3583 38.2263V39.5649C31.3583 39.9475 31.5495 40.2344 31.932 40.3298C32.0277 40.3298 32.2189 40.3298 32.3146 40.2344C41.3985 37.3657 46.3709 27.7079 43.5023 18.6239C41.7811 13.1735 37.5736 9.06176 32.3146 7.34058Z" fill="white"/>
</g>
<defs>
<filter id="filter0_d" x="0.102539" y="0.551758" width="53.8981" height="53.8981" filterUnits="userSpaceOnUse" color-interpolation-filters="sRGB">
<feFlood flood-opacity="0" result="BackgroundImageFix"/>
<feColorMatrix in="SourceAlpha" type="matrix" values="0 0 0 0 0 0 0 0 0 0 0 0 0 0 0 0 0 0 127 0" result="hardAlpha"/>
<feOffset dy="4"/>
<feGaussianBlur stdDeviation="2"/>
<feComposite in2="hardAlpha" operator="out"/>
<feColorMatrix type="matrix" values="0 0 0 0 0 0 0 0 0 0 0 0 0 0 0 0 0 0 0.25 0"/>
<feBlend mode="normal" in2="BackgroundImageFix" result="effect1_dropShadow"/>
<feBlend mode="normal" in="SourceGraphic" in2="effect1_dropShadow" result="shape"/>
</filter>
</defs>
</svg>
