<svg width="624" height="303" viewBox="0 0 624 303" fill="none" xmlns="http://www.w3.org/2000/svg">
<path fill-rule="evenodd" clip-rule="evenodd" d="M104.379 32.5068C94.3716 32.5068 75.5818 33.6091 59.8461 37.5979C43.7479 41.6543 0.44689 58.8736 0.218635 64.3219C-1.94642 116.001 11.9998 168.735 40.6529 203.985C50.9729 216.682 63.2778 227.862 77.1567 237.154C82.7548 240.845 87.9469 243.671 92.3557 245.604C96.8881 246.941 101.607 248.551 105.002 249.188C108.431 248.551 112.035 247.279 116.402 245.604C122.044 243.441 126.801 240.369 131.601 237.154C145.48 227.862 157.785 216.682 168.104 203.985C196.805 168.675 212.686 117.354 210.084 64.3219C198.218 55.8313 162.626 41.2044 148.57 37.5979C132.834 33.6361 114.386 32.5068 104.379 32.5068Z" fill="url(#paint0_angular)"/>
<g filter="url(#filter0_d)">
<path d="M60.3949 260.715C60.3653 260.753 60.3048 260.72 60.3214 260.674L102.062 146.025C102.073 145.995 102.049 145.965 102.018 145.968L43.3102 151.214C43.2739 151.217 43.2495 151.178 43.2709 151.149C65.294 120.851 104.036 71.1774 148.12 10.9692C148.148 10.9313 148.208 10.959 148.196 11.0044L121.823 108.988C121.816 109.015 121.836 109.041 121.863 109.042L175.847 110.471C175.882 110.472 175.901 110.512 175.879 110.539L60.3949 260.715Z" fill="url(#paint1_angular)"/>
<path d="M175.951 106.533L126.913 105.235L152 12.0282C152.579 9.87659 151.311 8.06662 149.826 7.38035C148.362 6.70306 146.222 6.89473 144.942 8.64222C122.919 38.7205 102.228 66.1708 84.2812 89.8992C82.0904 92.7959 79.94 95.6377 77.8327 98.4225C62.6907 118.433 49.776 135.5 40.0848 148.833C37.8669 151.884 40.6126 155.41 43.6608 155.138L96.2639 150.437L56.6201 259.327C55.0636 263.602 60.7415 266.726 63.5174 263.116L179.002 112.94C180.986 110.36 179.205 106.619 175.951 106.533Z" stroke="white" stroke-width="7.87785"/>
</g>
<path d="M230.301 160.728C228.737 160.728 227.709 160.281 227.217 159.387C226.726 158.493 226.771 157.443 227.352 156.236L229.631 151.275L236.536 136.191L243.442 121.173C243.665 120.681 243.911 120.123 244.179 119.497C244.492 118.827 244.693 118.38 244.783 118.156L247.397 112.391H251.219C251.397 112.391 251.554 112.391 251.688 112.391H259.197C257.186 116.681 256.135 118.961 256.046 119.229C256.001 119.274 255.644 120.033 254.973 121.508C254.347 122.939 253.498 124.838 252.425 127.207C251.353 129.531 250.191 132.056 248.939 134.783C247.733 137.464 246.436 140.303 245.051 143.297C243.71 146.292 242.526 148.929 241.498 151.208C250.392 151.163 259.309 151.141 268.248 151.141C279.421 126.693 285.299 113.888 285.88 112.726H285.947L286.081 112.391H297.88C295.869 116.681 294.819 118.961 294.729 119.229C294.685 119.318 294.238 120.19 293.388 121.844C293.388 121.933 293.366 122.022 293.321 122.112L286.416 137.129L279.511 152.214C278.349 154.672 277.678 156.102 277.499 156.504C276.069 159.276 274.013 160.661 271.331 160.661C270.706 160.661 269.7 160.661 268.315 160.661H263.957H263.89H237.14L230.301 160.728ZM340.187 141.42C337.639 141.42 334.041 141.42 329.393 141.42C324.566 141.42 320.141 141.42 316.119 141.42C315.716 141.42 314.778 141.42 313.303 141.42C311.56 145.219 310.085 148.482 308.878 151.208C317.817 151.163 326.756 151.141 335.695 151.141C337.393 147.476 338.891 144.236 340.187 141.42ZM350.176 131.766C352.009 131.766 353.282 132.19 353.998 133.04C354.713 133.889 354.69 135.163 353.93 136.861C352.858 139.319 351.986 141.263 351.316 142.694C350.69 144.079 350.02 145.554 349.305 147.119C348.589 148.683 347.852 150.292 347.092 151.946C345.975 154.404 345.304 155.834 345.081 156.236C344.366 157.667 343.427 158.784 342.265 159.588C341.103 160.348 339.941 160.706 338.779 160.661C338.198 160.661 337.304 160.661 336.097 160.661C334.89 160.661 333.818 160.661 332.879 160.661H331.538H304.52L297.682 160.728C296.117 160.728 295.089 160.281 294.598 159.387C294.106 158.493 294.151 157.443 294.732 156.236C295 155.655 295.224 155.186 295.402 154.828C295.581 154.426 295.805 153.935 296.073 153.353C296.341 152.728 296.654 152.035 297.011 151.275L303.917 136.191L310.822 121.173C311.94 118.715 312.588 117.285 312.766 116.882C313.526 115.452 314.465 114.357 315.582 113.597C316.744 112.793 317.906 112.391 319.068 112.391H326.577C324.566 116.681 323.516 118.961 323.426 119.229C323.381 119.274 323.113 119.832 322.622 120.905C322.13 121.978 321.415 123.564 320.476 125.665C319.538 127.766 318.599 129.799 317.66 131.766C319.27 131.766 323.18 131.766 329.393 131.766C331.896 131.766 334.242 131.766 336.432 131.766C338.667 131.766 340.723 131.766 342.6 131.766C343.539 131.766 344.366 131.766 345.081 131.766C345.796 131.766 346.422 131.766 346.958 131.766H348.232H348.634H350.176ZM404.621 135.051C406.99 129.822 408.957 125.464 410.521 121.978C401.627 121.978 392.71 121.978 383.771 121.978C377.871 134.939 373.447 144.683 370.497 151.208C379.391 151.163 388.308 151.141 397.247 151.141C399.973 145.197 402.431 139.833 404.621 135.051ZM421.717 112.323C423.282 112.323 424.31 112.77 424.801 113.664C425.293 114.558 425.248 115.609 424.667 116.815C424.22 117.843 423.46 119.542 422.388 121.911C422.388 121.955 422.365 122.022 422.321 122.112L418.432 130.559C417.628 132.347 416.667 134.448 415.549 136.861L408.711 151.946C407.594 154.404 406.923 155.834 406.7 156.236C406.253 157.175 405.672 157.979 404.957 158.65C404.242 159.41 403.415 159.946 402.476 160.259C401.761 160.572 401.068 160.706 400.398 160.661C399.817 160.661 398.923 160.661 397.716 160.661C396.509 160.661 395.437 160.661 394.498 160.661H393.157H366.139L359.301 160.728C357.736 160.728 356.708 160.281 356.217 159.387C355.725 158.493 355.77 157.443 356.351 156.236C356.619 155.655 356.842 155.186 357.021 154.828C357.2 154.426 357.424 153.935 357.692 153.353C357.96 152.728 358.273 152.035 358.63 151.275L365.536 136.191L372.441 121.173C373.558 118.715 374.206 117.285 374.385 116.882C375.145 115.452 376.084 114.357 377.201 113.597C378.363 112.793 379.525 112.391 380.687 112.391C381.715 112.391 383.749 112.391 386.788 112.391C396.219 112.391 405.649 112.391 415.08 112.391C417.583 112.346 419.795 112.323 421.717 112.323ZM470.169 135.051C472.537 129.822 474.504 125.464 476.068 121.978C467.174 121.978 458.257 121.978 449.318 121.978C443.419 134.939 438.994 144.683 436.044 151.208C444.938 151.163 453.855 151.141 462.794 151.141C465.52 145.197 467.979 139.833 470.169 135.051ZM487.264 112.323C488.829 112.323 489.857 112.77 490.348 113.664C490.84 114.558 490.795 115.609 490.214 116.815C489.767 117.843 489.008 119.542 487.935 121.911C487.935 121.955 487.913 122.022 487.868 122.112L483.979 130.559C483.175 132.347 482.214 134.448 481.097 136.861L474.258 151.946C473.141 154.404 472.47 155.834 472.247 156.236C471.8 157.175 471.219 157.979 470.504 158.65C469.789 159.41 468.962 159.946 468.023 160.259C467.308 160.572 466.615 160.706 465.945 160.661C465.364 160.661 464.47 160.661 463.263 160.661C462.056 160.661 460.984 160.661 460.045 160.661H458.704H431.686L424.848 160.728C423.284 160.728 422.256 160.281 421.764 159.387C421.272 158.493 421.317 157.443 421.898 156.236C422.166 155.655 422.39 155.186 422.568 154.828C422.747 154.426 422.971 153.935 423.239 153.353C423.507 152.728 423.82 152.035 424.177 151.275L431.083 136.191L437.988 121.173C439.106 118.715 439.754 117.285 439.932 116.882C440.692 115.452 441.631 114.357 442.748 113.597C443.91 112.793 445.072 112.391 446.234 112.391C447.262 112.391 449.296 112.391 452.335 112.391C461.766 112.391 471.197 112.391 480.627 112.391C483.13 112.346 485.343 112.323 487.264 112.323ZM517.882 112.391L557.907 112.458L553.482 122.112C540.61 122.067 527.76 122.022 514.933 121.978C513.011 126.447 511.58 129.71 510.642 131.766C514.083 131.766 517.905 131.766 522.106 131.766C526.889 131.766 531.291 131.766 535.314 131.766C536.073 131.766 536.833 131.766 537.593 131.766C538.353 131.766 539.046 131.766 539.671 131.766H540.945H541.347C541.973 131.766 542.599 131.766 543.225 131.766C544.163 131.766 544.901 131.833 545.437 131.967C546.018 132.101 546.487 132.347 546.845 132.704C547.247 133.017 547.426 133.531 547.381 134.246C547.381 134.917 547.135 135.788 546.644 136.861C545.571 139.319 544.722 141.263 544.096 142.694C543.47 144.079 542.778 145.554 542.018 147.119C541.303 148.683 540.565 150.292 539.805 151.946C538.688 154.404 538.018 155.834 537.794 156.236C537.079 157.667 536.14 158.784 534.978 159.588C533.816 160.348 532.654 160.706 531.492 160.661C530.509 160.661 528.699 160.661 526.062 160.661L485.635 160.795L489.792 151.342L528.475 151.074C529.95 147.945 531.47 144.727 533.034 141.42C529.727 141.42 526.084 141.42 522.106 141.42C519.603 141.42 517.234 141.42 515 141.42C512.81 141.42 510.754 141.42 508.832 141.42H506.418C505.256 141.465 503.535 141.487 501.256 141.487C499.2 141.487 497.703 141.04 496.764 140.146C495.87 139.252 495.825 137.934 496.63 136.191C497.658 133.956 498.485 132.146 499.111 130.76C499.736 129.33 500.429 127.788 501.189 126.134C501.993 124.481 502.776 122.827 503.535 121.173C504.653 118.715 505.301 117.285 505.48 116.882C506.239 115.452 507.178 114.357 508.295 113.597C509.457 112.793 510.62 112.391 511.782 112.391C512.81 112.391 514.843 112.391 517.882 112.391ZM566.337 160.728C567.231 158.985 567.745 157.979 567.879 157.711L568.483 156.303L570.762 151.342L577.668 136.325L584.238 121.978C578.159 121.978 572.103 121.978 566.069 121.978L570.226 112.458L617.826 112.391L613.468 121.978H595.97C584.707 146.605 578.785 159.521 578.204 160.728H566.337Z" fill="white"/>
<path d="M317.647 133.042C320.194 133.042 323.792 133.042 328.441 133.042C333.268 133.042 337.692 133.042 341.715 133.042C342.117 133.042 343.056 133.042 344.531 133.042C346.274 129.243 347.749 125.98 348.956 123.254C340.017 123.298 331.078 123.321 322.139 123.321C320.44 126.986 318.943 130.226 317.647 133.042ZM307.657 142.696C305.825 142.696 304.551 142.272 303.836 141.422C303.121 140.573 303.143 139.299 303.903 137.601C304.976 135.143 305.847 133.198 306.518 131.768C307.143 130.383 307.814 128.908 308.529 127.343C309.244 125.779 309.982 124.17 310.741 122.516C311.859 120.058 312.529 118.628 312.753 118.226C313.468 116.795 314.406 115.678 315.568 114.873C316.73 114.114 317.893 113.756 319.055 113.801C319.636 113.801 320.53 113.801 321.736 113.801C322.943 113.801 324.016 113.801 324.954 113.801L326.295 113.801L353.313 113.801L360.152 113.734C361.716 113.734 362.744 114.181 363.236 115.075C363.727 115.968 363.683 117.019 363.102 118.226C362.833 118.807 362.61 119.276 362.431 119.633C362.252 120.036 362.029 120.527 361.761 121.108C361.493 121.734 361.18 122.427 360.822 123.187L353.917 138.271L347.011 153.289C345.894 155.747 345.246 157.177 345.067 157.58C344.307 159.01 343.369 160.105 342.251 160.865C341.089 161.669 339.927 162.071 338.765 162.071L331.256 162.071C333.268 157.781 334.318 155.501 334.407 155.233C334.452 155.188 334.72 154.63 335.212 153.557C335.703 152.484 336.419 150.898 337.357 148.797C338.296 146.696 339.234 144.663 340.173 142.696C338.564 142.696 334.653 142.696 328.441 142.696C325.938 142.696 323.591 142.696 321.401 142.696C319.166 142.696 317.11 142.696 315.233 142.696C314.295 142.696 313.468 142.696 312.753 142.696C312.037 142.696 311.412 142.696 310.875 142.696L309.602 142.696L309.199 142.696L307.657 142.696Z" fill="white"/>
<defs>
<filter id="filter0_d" x="18.3154" y="3.08398" width="182.447" height="299.543" filterUnits="userSpaceOnUse" color-interpolation-filters="sRGB">
<feFlood flood-opacity="0" result="BackgroundImageFix"/>
<feColorMatrix in="SourceAlpha" type="matrix" values="0 0 0 0 0 0 0 0 0 0 0 0 0 0 0 0 0 0 127 0" result="hardAlpha"/>
<feOffset dy="16.9815"/>
<feGaussianBlur stdDeviation="8.49075"/>
<feColorMatrix type="matrix" values="0 0 0 0 0 0 0 0 0 0 0 0 0 0 0 0 0 0 0.07 0"/>
<feBlend mode="normal" in2="BackgroundImageFix" result="effect1_dropShadow"/>
<feBlend mode="normal" in="SourceGraphic" in2="effect1_dropShadow" result="shape"/>
</filter>
<radialGradient id="paint0_angular" cx="0" cy="0" r="1" gradientUnits="userSpaceOnUse" gradientTransform="translate(105.18 140.847) rotate(48.3665) scale(103.28 100.268)">
<stop offset="0.0757176" stop-color="#0C494F"/>
<stop offset="0.227709" stop-color="#063B3F"/>
<stop offset="0.366988" stop-color="#0D7076"/>
<stop offset="0.497642" stop-color="#0A4D52"/>
<stop offset="0.635328" stop-color="#0D6E75"/>
<stop offset="0.773186" stop-color="#0C6D74"/>
<stop offset="0.923334" stop-color="#0A4045"/>
</radialGradient>
<radialGradient id="paint1_angular" cx="0" cy="0" r="1" gradientUnits="userSpaceOnUse" gradientTransform="translate(109.237 125.043) rotate(96.7109) scale(140.932 68.8585)">
<stop offset="0.0350893" stop-color="#071F21"/>
<stop offset="0.293192" stop-color="#0D3538"/>
<stop offset="0.617447" stop-color="#0E3C40"/>
<stop offset="0.815288" stop-color="#195759"/>
</radialGradient>
</defs>
</svg>
